<svg width="237" height="410" viewBox="0 0 237 410" fill="none" xmlns="http://www.w3.org/2000/svg">
<path d="M107.512 368.364H-62.9447V384.814H107.512V368.364Z" fill="#E0E0E0"/>
<path d="M157.968 200.047C138.344 196.179 121.179 186.412 111.642 173.69C102.104 160.969 100.29 145.464 106.784 131.786C111.833 121.138 121.597 111.757 125.775 100.927C130.549 88.6132 127.697 75.5691 124.76 62.987C121.824 50.4048 118.852 37.3929 123.292 25.0257C125.987 18.1171 130.885 12.077 137.373 7.66045C143.861 3.24395 151.652 0.647077 159.771 0.194504C176.482 -0.622099 191.916 8.12415 198.887 18.8797C205.858 29.6352 205.906 41.9702 204.283 53.7357C202.659 65.5012 199.508 77.2668 200.475 89.0753C202.492 112.982 221.46 135.482 219.227 159.368C218.034 171.81 211.242 179.783 199.58 189.131C189.517 197.2 172.794 202.508 157.968 200.026" fill="#EBEBEB"/>
<path d="M217.079 308.677H112.465V318.336H217.079V308.677Z" fill="#E0E0E0"/>
<path d="M427.344 320.647C427.344 320.797 236.297 320.926 0.68988 320.926C-234.917 320.926 -426 320.797 -426 320.647C-426 320.496 -235.013 320.367 0.68988 320.367C236.392 320.367 427.344 320.485 427.344 320.647Z" fill="#263238"/>
<path d="M164.844 312.352H153.587H148.359H137.103L134.62 320.647H148.359H153.587H167.326L164.844 312.352Z" fill="#E0E0E0"/>
<path d="M164.844 312.352C164.931 312.52 164.999 312.697 165.047 312.878C165.19 313.286 165.357 313.824 165.584 314.479C166.049 315.962 166.706 318.025 167.517 320.593L167.589 320.818H167.326C160.164 320.818 149.278 320.915 137.103 320.915H134.214L134.31 320.561C135.193 317.67 136.028 314.877 136.816 312.276L136.876 312.072H137.103L157.049 312.18L162.826 312.266H164.342C164.509 312.25 164.677 312.25 164.844 312.266H164.283H162.731L156.977 312.352L137.103 312.459L137.389 312.266L134.894 320.711L134.596 320.367H137.079C149.254 320.367 160.141 320.367 167.303 320.464L167.112 320.69C166.395 318.143 165.81 316.091 165.393 314.608C165.214 313.931 165.07 313.383 164.951 312.953C164.898 312.755 164.863 312.554 164.844 312.352Z" fill="#263238"/>
<path d="M129.964 267.234H95.9804V320.646H129.964V267.234Z" fill="#263238"/>
<path d="M114.745 190.506H123.542V183.941H114.745V190.506Z" fill="#263238"/>
<path d="M131.504 195.481C132.667 195.481 133.819 195.274 134.894 194.874C135.968 194.473 136.945 193.886 137.767 193.145C138.59 192.405 139.242 191.526 139.687 190.559C140.132 189.592 140.361 188.555 140.361 187.508V177.655C140.361 175.541 139.428 173.513 137.767 172.017C136.106 170.522 133.853 169.682 131.504 169.682C129.157 169.685 126.908 170.526 125.249 172.021C123.591 173.516 122.659 175.542 122.659 177.655V187.508C122.659 189.621 123.591 191.647 125.249 193.142C126.908 194.637 129.157 195.478 131.504 195.481Z" fill="#263238"/>
<path d="M-45.8396 107.083C-48.0328 107.113 -50.1859 107.616 -52.1178 108.551C-54.0497 109.486 -55.7038 110.825 -56.9408 112.456C-58.3426 114.177 -59.4566 116.074 -60.2473 118.086C-61.7871 122.674 -70.1547 140.65 -76.7915 185.681C-79.1789 199.521 -81.1842 215.477 -82.9031 232.518L-84.9443 248.549L127.529 249.344C127.529 249.344 121.43 194.965 120.021 185.671C118.613 176.376 102.176 113.831 102.176 113.831C102.176 113.831 102.653 108.942 91.4326 107.159C81.6445 105.622 -19.0895 106.75 -45.8396 107.083Z" fill="#FF725E"/>
<g opacity="0.3">
<path d="M-35.6576 214.918H79.5316L123.399 211.802L127.553 248.366L77.4189 249.344L-84.9443 248.549L-82.4018 227.607L-80.6113 211.802L-35.6576 214.918Z" fill="black"/>
</g>
<path d="M-54.5058 137.491C-54.5058 137.491 -63.0525 137.792 -66.3351 152.276C-69.6177 166.76 -72.2437 190.13 -72.2437 190.13H115.974L106.425 148.139C106.425 148.139 105.16 140.951 94.3092 137.491C83.4588 134.031 -49.8385 133.494 -54.5058 137.491Z" fill="#455A64"/>
<path d="M3.30377 134.708H39.1975V136.857C39.1975 138.128 38.6366 139.347 37.6382 140.246C36.6398 141.144 35.2856 141.649 33.8737 141.649H8.62754C7.21558 141.649 5.86147 141.144 4.86307 140.246C3.86467 139.347 3.30377 138.128 3.30377 136.857V134.708Z" fill="#263238"/>
<path d="M-72.2437 190.13L-71.4917 183.941H114.136L115.974 190.13H-72.2437Z" fill="#263238"/>
<path d="M102.128 185.971H100.934C100.934 181.794 99.0906 177.787 95.8088 174.833C92.5271 171.879 88.0761 170.219 83.435 170.219C78.7939 170.219 74.3429 171.879 71.0611 174.833C67.7794 177.787 65.9358 181.794 65.9358 185.971H64.7421C64.7421 181.509 66.7115 177.229 70.2171 174.073C73.7227 170.918 78.4773 169.145 83.435 169.145C88.3927 169.145 93.1473 170.918 96.6529 174.073C100.158 177.229 102.128 181.509 102.128 185.971Z" fill="#263238"/>
<path d="M60.1703 184.897C60.1703 184.897 62.7605 180.599 70.2926 180.384C77.2756 180.212 95.0135 180.384 95.0135 180.384C95.0135 180.384 103.668 180.728 106.174 183.941V185.971H60.1703V184.897Z" fill="#263238"/>
<path d="M-5.0042 185.058C-5.75621 185.918 -4.63414 172.422 -2.92719 166.502C-2.7325 165.84 -2.30044 165.255 -1.69818 164.837C-1.09592 164.42 -0.357211 164.193 0.403131 164.192H31.0447C31.8645 164.191 32.6578 164.453 33.2816 164.932C33.9054 165.41 34.3186 166.074 34.4467 166.803C35.1509 170.875 37.025 178.697 37.4547 185.069L-5.0042 185.058Z" fill="#263238"/>
<path d="M25.6015 149.428H6.40728C4.24495 149.428 2.49203 151.006 2.49203 152.953V158.873C2.49203 160.82 4.24495 162.397 6.40728 162.397H25.6015C27.7639 162.397 29.5168 160.82 29.5168 158.873V152.953C29.5168 151.006 27.7639 149.428 25.6015 149.428Z" fill="#263238"/>
<path d="M51.4327 185.058C50.6807 185.918 51.7908 172.422 53.5097 166.502C53.7025 165.839 54.1341 165.253 54.7368 164.835C55.3394 164.417 56.0791 164.191 56.84 164.192H87.5054C88.3245 164.188 89.1175 164.45 89.7399 164.93C90.3622 165.409 90.7724 166.074 90.8955 166.803C91.5998 170.875 93.4857 178.697 93.9035 185.069L51.4327 185.058Z" fill="#263238"/>
<path d="M82.0265 149.428H62.8323C60.6699 149.428 58.917 151.006 58.917 152.953V158.873C58.917 160.82 60.6699 162.397 62.8323 162.397H82.0265C84.1888 162.397 85.9417 160.82 85.9417 158.873V152.953C85.9417 151.006 84.1888 149.428 82.0265 149.428Z" fill="#263238"/>
<path d="M115.974 190.13C115.974 190.13 115.974 190.355 115.974 190.785C115.974 191.215 115.974 191.86 115.974 192.73C115.974 194.46 115.855 196.963 115.76 200.187C115.533 206.687 115.222 216.057 114.829 227.618V227.812H114.602L22.0206 227.887L-72.2079 227.812H-72.4347V227.607C-72.4347 216.487 -72.3511 207.482 -72.3272 201.24C-72.3272 198.145 -72.3272 195.728 -72.3272 194.073C-72.3272 193.267 -72.3272 192.644 -72.3272 192.203C-72.3272 191.763 -72.3272 191.569 -72.3272 191.569C-72.3272 191.569 -72.3272 191.784 -72.3272 192.203C-72.3272 192.622 -72.3272 193.278 -72.3272 194.073C-72.3272 195.728 -72.3272 198.145 -72.2675 201.24C-72.2675 207.482 -72.2079 216.487 -72.1721 227.607L-72.3869 227.414L21.8415 227.328L114.423 227.403L114.196 227.607C114.673 216.046 115.067 206.677 115.39 200.176C115.533 196.953 115.652 194.449 115.736 192.73C115.736 191.892 115.807 191.247 115.831 190.785C115.855 190.323 115.974 190.13 115.974 190.13Z" fill="#263238"/>
<path d="M79.5317 214.918C79.3049 215.53 79.5317 235.601 79.5317 235.601C79.5317 235.601 117.097 237.439 125.5 229.047L123.399 211.802L79.5317 214.918Z" fill="#E0E0E0"/>
<path d="M79.5316 214.918C79.7956 214.87 80.0627 214.838 80.3314 214.821L82.7187 214.617L91.7548 213.897L123.375 211.544H123.662V211.791C124.318 217.163 125.034 222.966 125.786 228.983V229.112L125.691 229.198C124.847 229.991 123.877 230.668 122.814 231.207C119.099 232.891 115.103 234.02 110.985 234.548C107.166 235.112 103.317 235.492 99.454 235.687C92.8039 236.042 86.1374 236.07 79.4838 235.773H79.2571V235.58C79.2571 229.208 79.2571 224.029 79.2571 220.451C79.2571 218.668 79.2571 217.228 79.3406 216.325C79.3262 215.846 79.3743 215.366 79.4838 214.896C79.4838 215.638 79.4838 217.206 79.4838 220.451C79.5435 224.072 79.6032 229.23 79.6987 235.569L79.4719 235.365C86.108 235.604 92.7531 235.543 99.3824 235.182C103.222 234.971 107.047 234.58 110.842 234.011C114.888 233.491 118.815 232.385 122.468 230.734C123.477 230.223 124.398 229.582 125.201 228.832L125.118 229.047C124.39 222.976 123.686 217.153 123.041 211.856L123.351 212.081L91.8503 214.23L82.7545 214.8L80.3672 214.929H79.7345L79.5316 214.918Z" fill="#263238"/>
<path d="M-84.9444 248.549C-84.9444 248.549 -87.0214 273.541 -82.2467 288.735C-81.484 291.118 -79.8795 293.212 -77.6761 294.701C-75.4728 296.19 -72.7905 296.992 -70.0354 296.987H116.989C118.97 296.992 120.907 296.457 122.543 295.452C124.18 294.447 125.44 293.019 126.156 291.356C129.129 284.458 132.316 272.811 127.589 248.377L72.2622 248.56L-84.9444 248.549Z" fill="#263238"/>
<g opacity="0.3">
<path d="M115.533 256.887C114.936 257.242 113.145 268.126 104.67 269.781C96.1953 271.435 81.9906 270.49 81.9906 270.49V256.887H115.533Z" fill="black"/>
</g>
<path d="M89.1169 263.635C89.1145 264.857 89.5151 266.053 90.2678 267.07C91.0205 268.088 92.0917 268.881 93.3456 269.35C94.5996 269.82 95.98 269.944 97.3122 269.706C98.6444 269.469 99.8685 268.882 100.83 268.018C101.791 267.154 102.446 266.054 102.711 264.855C102.977 263.656 102.842 262.413 102.323 261.284C101.804 260.154 100.924 259.189 99.7949 258.509C98.6659 257.83 97.3385 257.467 95.9805 257.467C94.1622 257.467 92.4182 258.117 91.1314 259.273C89.8446 260.429 89.12 261.998 89.1169 263.635Z" fill="white"/>
<path d="M-30.0116 256.737V267.352C-30.0116 270.105 -28.7968 272.745 -26.6343 274.692C-24.4719 276.638 -21.5389 277.732 -18.4808 277.732H61.4952C64.5534 277.732 67.4863 276.638 69.6488 274.692C71.8112 272.745 73.0261 270.105 73.0261 267.352V257.317L-30.0116 256.737Z" fill="#455A64"/>
<g opacity="0.3">
<path d="M61.543 273.531H-18.433C-19.9467 273.532 -21.4459 273.265 -22.8448 272.744C-24.2437 272.224 -25.515 271.46 -26.5859 270.497C-27.6568 269.534 -28.5063 268.391 -29.0859 267.132C-29.6655 265.874 -29.9639 264.524 -29.9639 263.162V267.535C-29.9654 268.898 -29.6683 270.249 -29.0893 271.509C-28.5104 272.769 -27.6611 273.913 -26.5901 274.878C-25.519 275.842 -24.2472 276.606 -22.8475 277.127C-21.4479 277.648 -19.9477 277.916 -18.433 277.914H61.543C63.0577 277.916 64.5578 277.648 65.9575 277.127C67.3572 276.606 68.629 275.842 69.7 274.878C70.7711 273.913 71.6204 272.769 72.1993 271.509C72.7782 270.249 73.0754 268.898 73.0738 267.535V263.162C73.0738 264.524 72.7755 265.874 72.1959 267.132C71.6163 268.391 70.7667 269.534 69.6958 270.497C68.6249 271.46 67.3537 272.224 65.9548 272.744C64.5558 273.265 63.0567 273.532 61.543 273.531Z" fill="black"/>
</g>
<path d="M-23.709 227.607C-23.709 227.607 -29.1164 229.574 -30.0116 237.009C-31.0978 246.088 -19.567 248.549 -19.567 248.549H68.0485C71.0249 245.273 72.7753 241.234 73.05 237.009C73.2648 230.358 66.3057 227.607 66.3057 227.607H-23.709Z" fill="#263238"/>
<path d="M101.531 115.55C101.531 115.701 65.6374 115.829 21.388 115.829C-22.8614 115.829 -58.7671 115.701 -58.7671 115.55C-58.7671 115.4 -22.8853 115.271 21.388 115.271C65.6613 115.271 101.531 115.389 101.531 115.55Z" fill="#263238"/>
<path d="M127.553 248.398C127.553 248.398 128.46 252.202 129.356 259.143C129.896 263.387 130.147 267.658 130.108 271.929C130.117 277.606 129.204 283.253 127.398 288.691C127.123 289.443 126.849 290.206 126.527 290.958C126.236 291.743 125.835 292.49 125.333 293.183C124.254 294.607 122.747 295.725 120.988 296.406C120.086 296.765 119.128 296.997 118.147 297.094C117.158 297.167 116.166 297.192 115.175 297.169H109.135H82.874H22.8561H-37.1856H-63.3747H-69.4266C-71.4066 297.23 -73.3777 296.904 -75.204 296.213C-76.9087 295.544 -78.4318 294.55 -79.6683 293.299C-80.9048 292.049 -81.8252 290.572 -82.366 288.971C-83.9399 283.485 -84.8878 277.868 -85.195 272.209C-85.5293 267.223 -85.5532 262.915 -85.5054 259.401C-85.4577 255.888 -85.3144 253.169 -85.195 251.321C-85.1234 250.408 -85.0757 249.709 -85.0279 249.172C-84.9802 248.635 -84.9444 248.463 -84.9444 248.463C-84.9444 248.463 -84.9444 248.71 -84.9444 249.183C-84.9444 249.656 -85.004 250.365 -85.0399 251.278C-85.1234 253.126 -85.2309 255.855 -85.2428 259.358C-85.2547 262.861 -85.1831 267.17 -84.8131 272.144C-84.4805 277.777 -83.5126 283.364 -81.9244 288.82C-81.3897 290.365 -80.4897 291.787 -79.2864 292.989C-78.083 294.191 -76.6048 295.144 -74.9533 295.783C-73.182 296.445 -71.2711 296.749 -69.355 296.675H-63.3031H-37.1139H22.9278H82.9456H109.206H115.246C116.218 296.706 117.19 296.688 118.159 296.621C119.533 296.476 120.857 296.067 122.041 295.422C123.225 294.777 124.242 293.91 125.023 292.882C125.523 292.215 125.924 291.493 126.216 290.733C126.538 289.991 126.825 289.239 127.1 288.498C128.917 283.1 129.854 277.494 129.881 271.854C129.95 267.592 129.735 263.329 129.236 259.089C129.057 257.338 128.83 255.791 128.639 254.459C128.448 253.126 128.269 251.987 128.114 251.074C127.959 250.161 127.852 249.473 127.768 248.989C127.684 248.506 127.553 248.398 127.553 248.398Z" fill="#455A64"/>
<path d="M127.553 248.399C127.553 248.549 82.6709 248.678 27.2846 248.678C-28.1018 248.678 -72.9838 248.549 -72.9838 248.399C-72.9838 248.248 -28.1137 248.119 27.2846 248.119C82.6829 248.119 127.553 248.205 127.553 248.399Z" fill="#455A64"/>
<path d="M188.943 385.825L189.803 401.233C189.803 401.233 172.697 407.196 172.554 410.054L205.798 409.624L205.547 385.577L188.943 385.825Z" fill="#455A64"/>
<path d="M200.104 399.804C200.426 399.887 200.702 400.075 200.879 400.331C201.055 400.587 201.119 400.893 201.059 401.19C200.979 401.48 200.779 401.732 200.499 401.894C200.22 402.056 199.882 402.116 199.555 402.06C199.213 401.972 198.92 401.772 198.732 401.5C198.544 401.228 198.476 400.903 198.54 400.588C198.66 400.292 198.901 400.049 199.214 399.909C199.528 399.768 199.889 399.742 200.223 399.836" fill="#263238"/>
<path d="M205.834 409.678V407.346L173.903 408.571C173.903 408.571 172.423 409.173 172.614 410.108L205.834 409.678Z" fill="#263238"/>
<path d="M189.301 401.082C189.301 401.222 190.125 401.275 190.925 401.738C191.724 402.2 192.118 402.812 192.321 402.748C192.524 402.683 192.214 401.845 191.223 401.308C190.232 400.77 189.265 400.953 189.301 401.082Z" fill="#263238"/>
<path d="M185.84 402.436C185.84 402.576 186.508 402.812 187.033 403.424C187.558 404.037 187.761 404.692 187.928 404.682C188.096 404.671 188.179 403.843 187.463 403.091C186.747 402.339 185.84 402.296 185.84 402.436Z" fill="#263238"/>
<path d="M183.918 406.218C184.061 406.218 184.276 405.509 183.846 404.714C183.417 403.919 182.653 403.639 182.581 403.736C182.509 403.833 182.999 404.284 183.333 404.94C183.667 405.595 183.751 406.207 183.918 406.218Z" fill="#263238"/>
<path d="M189.54 397.558C189.612 397.687 190.352 397.483 191.271 397.558C192.19 397.633 192.906 397.848 192.99 397.73C193.073 397.612 192.381 397.085 191.295 397.053C190.208 397.021 189.456 397.44 189.54 397.558Z" fill="#263238"/>
<path d="M218.713 385.739L219.334 401.157C219.334 401.157 202.133 406.895 201.942 409.753H235.186L235.317 385.696L218.713 385.739Z" fill="#455A64"/>
<path d="M229.612 399.857C229.932 399.945 230.206 400.135 230.38 400.393C230.554 400.651 230.616 400.957 230.555 401.254C230.467 401.544 230.261 401.793 229.977 401.95C229.693 402.108 229.353 402.162 229.027 402.103C228.688 402.008 228.4 401.805 228.217 401.531C228.035 401.258 227.97 400.934 228.036 400.62C228.162 400.325 228.41 400.084 228.727 399.948C229.045 399.812 229.409 399.791 229.743 399.889" fill="#263238"/>
<path d="M235.186 409.753V407.422L203.243 408.238C203.243 408.238 201.763 408.818 201.93 409.753H235.186Z" fill="#263238"/>
<path d="M218.785 401.007C218.785 401.147 219.597 401.211 220.396 401.684C221.196 402.157 221.59 402.758 221.769 402.758C221.948 402.758 221.686 401.856 220.707 401.297C219.728 400.738 218.785 400.867 218.785 401.007Z" fill="#263238"/>
<path d="M215.311 402.307C215.311 402.447 215.968 402.694 216.505 403.307C217.042 403.919 217.209 404.585 217.376 404.574C217.543 404.564 217.639 403.747 216.935 402.984C216.23 402.221 215.311 402.157 215.311 402.307Z" fill="#263238"/>
<path d="M213.33 406.057C213.473 406.057 213.7 405.359 213.33 404.564C212.96 403.768 212.136 403.489 212.136 403.564C212.136 403.639 212.53 404.112 212.864 404.778C213.199 405.445 213.163 406.046 213.33 406.057Z" fill="#263238"/>
<path d="M219.083 397.472C219.155 397.612 219.895 397.407 220.814 397.472C221.733 397.536 222.45 397.794 222.533 397.665C222.617 397.536 221.936 397.021 220.85 396.967C219.764 396.913 219.012 397.364 219.083 397.472Z" fill="#263238"/>
<path d="M197.156 271.887C196.654 272.532 176.732 335.098 176.732 339.353C176.732 343.608 183.5 397.375 183.5 397.375L208.185 397.805L203.9 342.609L206.347 329.834L220.981 296.385L197.156 271.887Z" fill="#FF725E"/>
<g opacity="0.7">
<path d="M197.156 271.887C196.654 272.532 176.732 335.098 176.732 339.353C176.732 343.608 183.5 397.375 183.5 397.375L208.185 397.805L203.9 342.609L206.347 329.834L220.981 296.385L197.156 271.887Z" fill="black"/>
</g>
<path d="M232.453 252.525C232.87 252.976 245.249 269.813 244.389 279.827C243.53 289.842 243.028 293.377 237.502 299.243C237.502 299.243 235.114 330.79 235.114 334.851C235.114 335.313 236.463 342.985 237.263 362.261C237.764 374.209 237.573 398.181 237.573 398.181L212.303 398.611C212.303 398.611 210.131 357.415 208.961 354.246C207.566 350.214 206.645 346.062 206.216 341.857C205.822 337.366 200.772 305.926 200.772 306.528C200.772 307.13 193.825 277.861 193.312 270.727C193.005 266.58 193.005 262.42 193.312 258.273L232.453 252.525Z" fill="#FF725E"/>
<g opacity="0.5">
<path d="M232.453 252.525C232.87 252.976 245.249 269.813 244.389 279.827C243.53 289.842 243.028 293.377 237.502 299.243C237.502 299.243 235.114 330.79 235.114 334.851C235.114 335.313 236.463 342.985 237.263 362.261C237.764 374.209 237.573 398.181 237.573 398.181L212.303 398.611C212.303 398.611 210.131 357.415 208.961 354.246C207.566 350.214 206.645 346.062 206.216 341.857C205.822 337.366 200.772 305.926 200.772 306.528C200.772 307.13 193.825 277.861 193.312 270.727C193.005 266.58 193.005 262.42 193.312 258.273L232.453 252.525Z" fill="black"/>
</g>
<path d="M193.336 271.833C193.336 271.833 193.336 271.898 193.336 272.016V272.543C193.336 273.037 193.479 273.714 193.598 274.573C193.825 276.325 194.064 278.871 194.649 282.009C194.935 283.578 195.353 285.232 195.843 287.091C196.332 288.95 196.726 290.852 197.203 292.893C198.158 296.987 199.173 301.489 200.164 306.238C202.157 315.726 203.625 324.365 204.556 330.64C205.022 333.777 205.368 336.313 205.595 338.075C205.714 338.924 205.81 339.601 205.869 340.095L205.953 340.622C205.953 340.74 205.953 340.793 205.953 340.793V340.611C205.953 340.471 205.953 340.299 205.953 340.084C205.953 339.59 205.846 338.913 205.762 338.054C205.571 336.291 205.273 333.756 204.843 330.607C203.995 324.322 202.563 315.661 200.569 306.174C199.579 301.425 198.552 296.923 197.573 292.829C197.084 290.787 196.618 288.842 196.177 287.027C195.735 285.211 195.282 283.524 194.983 281.966C194.374 278.861 194.088 276.303 193.789 274.552C193.646 273.703 193.539 273.026 193.455 272.543L193.348 272.016C193.36 271.898 193.348 271.833 193.336 271.833Z" fill="black"/>
<path d="M219.191 153.168C221.375 150.74 227.141 150.794 228.609 152.244C229.602 151.763 230.762 151.643 231.85 151.909C232.938 152.175 233.871 152.806 234.458 153.673L240.641 154.565C241.713 154.638 242.747 154.952 243.649 155.478C244.086 155.756 244.396 156.168 244.521 156.636C244.646 157.105 244.578 157.598 244.33 158.025C244.851 158.16 245.327 158.409 245.716 158.749C246.106 159.088 246.397 159.509 246.564 159.973C246.731 160.437 246.77 160.932 246.676 161.412C246.582 161.893 246.358 162.346 246.025 162.731C246.237 162.94 246.401 163.184 246.508 163.45C246.615 163.716 246.663 163.998 246.648 164.28C246.634 164.563 246.557 164.84 246.424 165.096C246.29 165.352 246.102 165.582 245.869 165.772C247.674 167.515 249.139 169.52 250.202 171.703C250.733 172.582 250.906 173.601 250.692 174.582C250.623 174.82 250.498 175.041 250.325 175.231C250.153 175.42 249.936 175.574 249.691 175.681C249.446 175.788 249.178 175.846 248.906 175.852C248.634 175.857 248.363 175.809 248.113 175.711C248.437 176.078 248.637 176.522 248.688 176.989C248.738 177.456 248.638 177.926 248.4 178.343C249.438 178.343 249.844 179.74 249.176 180.492C248.791 180.804 248.34 181.042 247.849 181.192C247.359 181.342 246.839 181.4 246.323 181.362C245.28 181.283 244.236 181.501 243.339 181.986C243.357 182.099 243.4 182.208 243.465 182.305C243.531 182.403 243.618 182.488 243.721 182.555C244.628 183.105 245.267 183.948 245.504 184.91C245.742 185.871 245.561 186.878 244.998 187.723L244.676 188.164C243.881 189.019 242.902 189.721 241.799 190.227C239.531 191.441 238.122 191.301 235.532 191.774C236.332 193.257 232.309 196.835 227.248 193.783C218.712 196.461 209.79 198.014 200.76 198.393C199.328 198.468 197.597 198.393 196.893 197.265C196.308 197.395 195.697 197.39 195.115 197.251C194.532 197.112 193.999 196.843 193.563 196.47C192.702 195.709 191.991 194.823 191.462 193.848C190.209 193.583 189.079 192.976 188.224 192.111C187.369 191.245 186.833 190.163 186.687 189.013C185.81 188.461 185.071 187.751 184.516 186.928C183.961 186.104 183.603 185.186 183.464 184.231C182.866 184.07 182.311 183.8 181.834 183.437C181.358 183.074 180.969 182.626 180.694 182.122C180.418 181.618 180.261 181.067 180.232 180.506C180.204 179.944 180.304 179.384 180.528 178.859C180.875 176.17 181.718 173.551 183.022 171.112C181.363 170.876 180.635 168.909 181.208 167.491C181.969 166.144 183.146 165.025 184.598 164.267C183.404 164.633 182.211 163.3 182.461 162.172C182.644 161.616 182.95 161.099 183.36 160.652C183.77 160.206 184.277 159.838 184.849 159.572C186.393 158.631 188.056 157.859 189.803 157.273C190.268 155.306 192.882 152.975 194.852 151.986C202.79 148.097 208.448 146.925 219.274 153.243" fill="#263238"/>
<path d="M200.032 198.543C199.437 198.613 198.831 198.552 198.268 198.365C197.704 198.177 197.2 197.87 196.797 197.469C196.2 197.572 195.584 197.547 194.999 197.396C194.414 197.245 193.877 196.972 193.431 196.598C192.576 195.841 191.869 194.958 191.342 193.987C190.077 193.716 188.934 193.104 188.066 192.232C187.197 191.361 186.646 190.271 186.484 189.109C185.624 188.553 184.896 187.847 184.345 187.033C183.793 186.219 183.429 185.314 183.273 184.371C182.671 184.205 182.114 183.929 181.637 183.559C181.161 183.189 180.774 182.733 180.504 182.222C180.203 181.705 180.031 181.136 180 180.553C179.969 179.97 180.08 179.388 180.325 178.848C180.662 176.22 181.468 173.659 182.712 171.262C182.403 171.178 182.115 171.04 181.865 170.855C181.615 170.671 181.408 170.444 181.256 170.188C180.995 169.775 180.836 169.317 180.788 168.845C180.741 168.372 180.807 167.896 180.981 167.448C181.617 166.217 182.632 165.176 183.906 164.45C183.58 164.399 183.277 164.265 183.034 164.063C182.726 163.826 182.489 163.522 182.347 163.18C182.205 162.838 182.162 162.469 182.223 162.108C182.596 160.959 183.453 159.988 184.61 159.4C186.14 158.467 187.787 157.699 189.516 157.111C190.029 155.188 192.548 152.813 194.637 151.803C202.861 147.763 208.639 146.915 219.107 152.985C219.821 152.369 220.663 151.887 221.585 151.566C222.507 151.245 223.49 151.092 224.479 151.116C225.931 150.98 227.388 151.32 228.585 152.072C229.606 151.605 230.784 151.499 231.888 151.773C232.992 152.047 233.943 152.683 234.553 153.555L240.665 154.436C241.768 154.515 242.832 154.844 243.756 155.392C244.187 155.68 244.502 156.086 244.655 156.549C244.808 157.012 244.79 157.507 244.604 157.96C245.105 158.136 245.556 158.412 245.922 158.766C246.289 159.121 246.562 159.545 246.721 160.007C246.881 160.47 246.922 160.959 246.843 161.438C246.764 161.917 246.565 162.373 246.263 162.774C246.665 163.207 246.874 163.759 246.85 164.322C246.826 164.886 246.57 165.422 246.132 165.825C247.895 167.55 249.324 169.53 250.357 171.681C250.914 172.595 251.092 173.658 250.859 174.679C250.745 174.98 250.559 175.255 250.314 175.484C250.068 175.712 249.769 175.889 249.438 176.001C249.161 176.097 248.861 176.126 248.567 176.087C248.752 176.418 248.857 176.78 248.876 177.151C248.894 177.521 248.826 177.891 248.674 178.236C248.855 178.281 249.022 178.361 249.164 178.471C249.306 178.58 249.42 178.716 249.498 178.87C249.644 179.146 249.703 179.454 249.669 179.758C249.636 180.063 249.51 180.354 249.307 180.599C248.906 180.933 248.433 181.188 247.918 181.349C247.402 181.51 246.855 181.573 246.311 181.534H246.239C245.324 181.482 244.41 181.661 243.601 182.05C243.637 182.199 243.735 182.33 243.876 182.415C244.819 182.988 245.482 183.864 245.729 184.864C245.976 185.863 245.786 186.91 245.201 187.788L244.89 188.239C244.079 189.127 243.076 189.858 241.942 190.388C240.57 191.111 239.038 191.552 237.454 191.677C236.953 191.752 236.427 191.817 235.831 191.924C235.881 192.337 235.807 192.755 235.615 193.133C235.424 193.511 235.123 193.836 234.744 194.073C233.276 195.234 230.447 195.911 227.26 194.073C218.738 196.743 209.833 198.292 200.82 198.672L200.032 198.543ZM196.976 197.017L197.048 197.136C197.728 198.21 199.495 198.21 200.749 198.21C209.747 197.814 218.635 196.254 227.141 193.579H227.224H227.308C230.34 195.395 233.025 194.783 234.47 193.687C235.269 193.063 235.663 192.279 235.377 191.785L235.269 191.591H235.508C236.201 191.462 236.821 191.376 237.37 191.301C238.904 191.184 240.389 190.758 241.715 190.055C242.791 189.562 243.748 188.883 244.532 188.056L244.843 187.616C245.394 186.813 245.577 185.849 245.354 184.928C245.132 184.006 244.52 183.197 243.649 182.673C243.41 182.503 243.252 182.257 243.207 181.985V181.889L243.291 181.824C244.18 181.338 245.214 181.113 246.251 181.18H246.383C246.874 181.22 247.37 181.168 247.838 181.027C248.306 180.887 248.738 180.661 249.104 180.363C249.264 180.169 249.36 179.938 249.384 179.697C249.407 179.457 249.355 179.215 249.235 178.998C249.176 178.863 249.072 178.746 248.938 178.664C248.804 178.581 248.646 178.537 248.483 178.536H248.161L248.316 178.289C248.533 177.9 248.623 177.462 248.574 177.029C248.525 176.595 248.341 176.182 248.042 175.839L247.29 175.023L248.281 175.592C248.445 175.685 248.632 175.74 248.825 175.754C249.019 175.767 249.213 175.737 249.391 175.668C249.664 175.576 249.911 175.433 250.117 175.247C250.323 175.062 250.483 174.839 250.584 174.593C250.786 173.646 250.613 172.665 250.095 171.821C249.048 169.657 247.598 167.669 245.81 165.944L245.666 165.804L245.833 165.696C246.051 165.525 246.228 165.315 246.353 165.081C246.478 164.846 246.549 164.591 246.562 164.33C246.574 164.07 246.527 163.81 246.425 163.567C246.322 163.323 246.166 163.101 245.965 162.914L245.833 162.795L245.965 162.677C246.274 162.312 246.48 161.886 246.566 161.434C246.652 160.981 246.614 160.517 246.457 160.081C246.3 159.645 246.027 159.249 245.663 158.929C245.299 158.608 244.853 158.371 244.365 158.24L244.079 158.186L244.246 157.982C244.469 157.59 244.527 157.139 244.408 156.712C244.29 156.285 244.003 155.912 243.601 155.661C242.727 155.153 241.726 154.85 240.689 154.78L234.398 153.877V153.802C233.835 152.977 232.942 152.377 231.904 152.126C230.865 151.874 229.759 151.989 228.812 152.448L228.68 152.513L228.573 152.416C227.447 151.659 226.042 151.317 224.646 151.46C223.682 151.431 222.722 151.582 221.826 151.904C220.93 152.226 220.118 152.711 219.441 153.329L219.334 153.447L219.191 153.361C208.734 147.258 203.267 147.989 194.971 152.115C192.93 153.114 190.447 155.435 190.017 157.283V157.38H189.922C188.187 157.959 186.536 158.724 185.004 159.658C183.924 160.192 183.116 161.082 182.748 162.14C182.703 162.443 182.742 162.752 182.861 163.038C182.979 163.325 183.174 163.581 183.428 163.784C183.581 163.922 183.773 164.02 183.984 164.067C184.194 164.115 184.415 164.109 184.622 164.052L185.816 163.719L184.825 164.353C183.393 165.113 182.239 166.234 181.507 167.577C181.349 167.977 181.289 168.402 181.33 168.825C181.372 169.248 181.513 169.657 181.745 170.027C181.891 170.269 182.095 170.479 182.343 170.641C182.591 170.803 182.876 170.912 183.178 170.961H183.428L183.309 171.166C182.021 173.594 181.186 176.197 180.838 178.87C180.624 179.371 180.527 179.907 180.554 180.444C180.581 180.981 180.731 181.507 180.994 181.989C181.258 182.471 181.629 182.899 182.085 183.246C182.541 183.593 183.071 183.852 183.643 184.006H183.774V184.124C183.909 185.055 184.257 185.951 184.798 186.753C185.338 187.556 186.059 188.249 186.914 188.787L186.985 188.841V188.916C187.133 190.032 187.659 191.079 188.492 191.916C189.325 192.752 190.425 193.337 191.641 193.59H191.724V193.654C192.238 194.614 192.932 195.487 193.777 196.233C194.188 196.59 194.692 196.848 195.244 196.981C195.795 197.115 196.375 197.12 196.929 196.996L196.976 197.017Z" fill="#455A64"/>
<path d="M197.359 168.318C197.693 163.236 201.405 156.972 207.039 157.487L224.634 161.474C225.459 161.549 226.223 161.899 226.775 162.456C227.328 163.013 227.628 163.736 227.618 164.482L227.141 198.339C227.113 200.479 226.267 202.545 224.745 204.189C223.223 205.833 221.118 206.955 218.785 207.365C217.331 207.615 215.834 207.582 214.395 207.267C212.957 206.952 211.61 206.362 210.447 205.538C209.283 204.714 208.33 203.674 207.651 202.49C206.973 201.305 206.585 200.003 206.514 198.672C206.395 196.351 206.299 194.611 206.299 194.621C206.299 194.632 199.066 193.547 197.538 185.091C196.798 180.879 197 173.97 197.359 168.318Z" fill="#FFBF9D"/>
<path d="M199.901 175.055C199.901 175.34 200.027 175.613 200.251 175.815C200.475 176.016 200.778 176.13 201.095 176.13C201.394 176.131 201.682 176.031 201.903 175.85C202.124 175.669 202.261 175.42 202.288 175.152C202.288 174.867 202.163 174.594 201.939 174.392C201.715 174.191 201.411 174.077 201.095 174.077C200.796 174.076 200.508 174.176 200.287 174.357C200.066 174.538 199.928 174.787 199.901 175.055Z" fill="#263238"/>
<path d="M199.042 171.907C199.197 172.047 200.104 171.434 201.429 171.434C202.754 171.434 203.685 172.015 203.816 171.864C203.948 171.714 203.733 171.552 203.315 171.284C202.758 170.934 202.096 170.747 201.417 170.747C200.738 170.747 200.076 170.934 199.519 171.284C199.101 171.585 198.97 171.843 199.042 171.907Z" fill="#263238"/>
<path d="M211.408 174.808C211.408 175.093 211.534 175.366 211.758 175.568C211.981 175.769 212.285 175.883 212.602 175.883C212.902 175.883 213.192 175.782 213.414 175.599C213.635 175.416 213.771 175.164 213.795 174.894C213.795 174.609 213.67 174.336 213.446 174.134C213.222 173.933 212.918 173.82 212.602 173.82C212.301 173.819 212.011 173.92 211.79 174.103C211.568 174.287 211.432 174.538 211.408 174.808Z" fill="#263238"/>
<path d="M211.826 172.079C211.969 172.219 212.888 171.606 214.213 171.606C215.538 171.606 216.469 172.186 216.601 172.036C216.732 171.886 216.517 171.714 216.099 171.445C215.537 171.099 214.871 170.915 214.189 170.918C213.511 170.921 212.851 171.116 212.303 171.477C211.886 171.757 211.754 172.014 211.826 172.079Z" fill="#263238"/>
<path d="M207.147 180.814C206.461 180.622 205.751 180.51 205.034 180.481C204.7 180.481 204.389 180.395 204.33 180.191C204.306 179.882 204.38 179.572 204.544 179.299L205.523 177.021C206.423 175.093 207.149 173.102 207.696 171.069C206.621 172.925 205.719 174.859 204.998 176.85C204.664 177.659 204.353 178.422 204.067 179.138C203.852 179.5 203.793 179.921 203.9 180.32C203.95 180.424 204.025 180.517 204.12 180.592C204.215 180.666 204.327 180.72 204.449 180.75C204.632 180.795 204.821 180.817 205.01 180.814C205.719 180.897 206.437 180.897 207.147 180.814Z" fill="#263238"/>
<path d="M206.323 194.621C210.755 194.673 215.116 193.612 218.916 191.559C218.916 191.559 215.884 197.394 206.454 196.641L206.323 194.621Z" fill="#FF9A6C"/>
<path d="M211.229 167.265C211.36 167.577 212.65 167.426 214.177 167.588C215.705 167.749 216.935 168.114 217.138 167.824C217.341 167.534 217.018 167.394 216.517 167.083C215.849 166.711 215.096 166.48 214.315 166.405C213.534 166.331 212.745 166.416 212.005 166.653C211.456 166.846 211.169 167.115 211.229 167.265Z" fill="#263238"/>
<path d="M199.483 167.921C199.71 168.189 200.605 167.921 201.692 167.921C202.778 167.921 203.673 168.093 203.888 167.813C204.103 167.534 203.888 167.416 203.434 167.168C202.903 166.858 202.276 166.707 201.644 166.739C201.011 166.75 200.398 166.938 199.889 167.276C199.507 167.48 199.388 167.749 199.483 167.921Z" fill="#263238"/>
<path d="M193.36 172.573C193.329 171.23 193.809 169.919 194.721 168.855C195.307 168.354 195.861 167.823 196.38 167.265C197.37 165.965 197.132 164.235 197.49 162.699C197.742 161.707 198.25 160.784 198.974 160.003C199.698 159.223 200.617 158.607 201.656 158.207C203.387 157.563 205.392 157.552 207.003 156.692C208.197 156.048 209.069 154.995 210.298 154.425C212.685 153.351 215.61 154.307 217.985 155.446C218.534 157.09 217.448 158.573 216.41 159.991C215.872 160.71 215.166 161.315 214.341 161.763C213.516 162.21 212.593 162.489 211.635 162.58C210.179 162.72 208.448 162.505 207.469 163.494C206.49 164.482 206.944 166.255 206.12 167.437C204.926 169.113 201.99 168.63 200.152 169.715C198.719 170.553 198.182 172.176 197.526 173.594C196.869 175.012 195.652 176.506 193.945 176.506C193.585 175.219 193.389 173.9 193.36 172.573Z" fill="#263238"/>
<path d="M214.488 158.627C218.773 158.384 223.07 158.891 227.141 160.12C228.394 160.394 229.518 161.018 230.352 161.904C230.924 162.785 231.206 163.795 231.163 164.816C231.066 168.274 230.303 171.692 228.907 174.916L224.634 177.473C221.208 176.903 222.485 171.574 222.497 168.931C221.294 168.499 220.249 167.771 219.483 166.831C218.717 165.891 218.26 164.775 218.164 163.612C217.176 163.082 216.333 162.359 215.696 161.496C215.06 160.633 214.647 159.652 214.488 158.627Z" fill="#263238"/>
<path d="M224.682 176.334C224.682 174.518 227.176 174.056 228.955 174.916C229.934 175.388 230.698 176.366 230.686 178.3C230.686 183.436 224.908 182.34 224.897 182.19C224.885 182.039 224.646 178.461 224.682 176.334Z" fill="#FFBF9D"/>
<path d="M226.663 180.256C226.663 180.256 226.759 180.32 226.926 180.385C227.043 180.429 227.169 180.452 227.296 180.452C227.423 180.452 227.549 180.429 227.666 180.385C228.043 180.181 228.353 179.891 228.563 179.543C228.773 179.195 228.875 178.803 228.86 178.408C228.872 177.965 228.779 177.525 228.585 177.118C228.531 176.958 228.435 176.811 228.307 176.69C228.178 176.569 228.02 176.476 227.845 176.42C227.731 176.392 227.609 176.402 227.502 176.447C227.395 176.492 227.309 176.57 227.26 176.667C227.176 176.807 227.26 176.914 227.176 176.925C227.093 176.936 227.057 176.828 227.105 176.624C227.137 176.496 227.217 176.382 227.332 176.302C227.494 176.197 227.694 176.151 227.893 176.173C228.125 176.219 228.341 176.317 228.52 176.458C228.7 176.598 228.837 176.778 228.919 176.979C229.162 177.426 229.277 177.921 229.253 178.418C229.275 178.877 229.146 179.332 228.883 179.725C228.62 180.119 228.234 180.434 227.773 180.632C227.619 180.669 227.458 180.675 227.301 180.649C227.144 180.623 226.995 180.566 226.866 180.481C226.675 180.374 226.639 180.266 226.663 180.256Z" fill="#FF9A6C"/>
<path d="M229.635 183.35C229.94 183.343 230.244 183.31 230.543 183.254C230.887 183.192 231.221 183.087 231.533 182.942H231.462C231.563 183.373 231.786 183.773 232.111 184.104C232.435 184.434 232.849 184.682 233.312 184.825C233.775 184.968 234.272 185.001 234.753 184.919C235.234 184.838 235.684 184.645 236.057 184.36H235.962C236.149 184.586 236.428 184.737 236.738 184.779C237.049 184.823 237.368 184.786 237.657 184.672C237.958 184.552 238.209 184.349 238.373 184.092C238.529 183.831 238.611 183.539 238.612 183.243C238.605 182.622 238.351 182.023 237.896 181.556C237.428 181.082 236.899 180.66 236.32 180.299V180.417C236.548 180.273 236.741 180.088 236.884 179.873C237.028 179.659 237.121 179.419 237.156 179.171C237.238 178.655 237.155 178.13 236.917 177.656C236.653 177.184 236.288 176.763 235.842 176.42C235.401 176.071 234.934 175.748 234.446 175.453V175.571C234.64 175.364 234.784 175.121 234.866 174.86C234.948 174.599 234.968 174.325 234.923 174.056C234.858 173.503 234.603 172.981 234.195 172.563C233.393 171.829 232.412 171.274 231.33 170.94V171.026C231.449 170.484 231.419 169.925 231.245 169.396C231.071 168.867 230.756 168.384 230.329 167.988C229.902 167.592 229.375 167.295 228.793 167.122C228.21 166.95 227.59 166.907 226.985 166.997L227.081 167.083C227.138 166.653 227.094 166.217 226.95 165.804C226.807 165.39 226.567 165.009 226.248 164.685C225.929 164.361 225.537 164.102 225.098 163.924C224.66 163.747 224.184 163.655 223.703 163.655L223.786 163.72C223.743 163.289 223.592 162.872 223.347 162.5C223.101 162.128 222.766 161.811 222.366 161.571C222.025 161.349 221.638 161.191 221.227 161.108C220.817 161.025 220.392 161.018 219.979 161.087H220.038C219.989 160.621 219.808 160.173 219.513 159.787C219.26 159.445 218.95 159.141 218.594 158.884C218.029 158.472 217.328 158.237 216.6 158.218H216.398H216.195L215.837 158.272C215.653 158.316 215.473 158.373 215.299 158.444L214.989 158.573L214.894 158.627H215.001L215.311 158.508C215.455 158.444 215.646 158.422 215.848 158.358H216.207H216.398H216.612C217.324 158.379 218.006 158.618 218.546 159.035C218.898 159.285 219.2 159.586 219.441 159.927C219.72 160.299 219.892 160.727 219.943 161.173V161.238H220.014C220.417 161.171 220.83 161.18 221.228 161.263C221.626 161.346 222.002 161.502 222.33 161.721C222.714 161.955 223.035 162.264 223.268 162.625C223.502 162.986 223.642 163.389 223.679 163.806V163.87H223.751C224.203 163.874 224.65 163.963 225.062 164.131C225.474 164.298 225.843 164.542 226.145 164.845C226.447 165.148 226.676 165.505 226.816 165.892C226.957 166.279 227.006 166.688 226.962 167.093V167.201H227.069C227.65 167.104 228.249 167.137 228.812 167.299C229.375 167.46 229.885 167.744 230.296 168.126C230.707 168.508 231.007 168.976 231.169 169.487C231.331 169.999 231.349 170.539 231.223 171.058V171.112H231.295C232.349 171.444 233.307 171.983 234.1 172.691C234.485 173.09 234.726 173.585 234.792 174.11C234.817 174.35 234.786 174.593 234.702 174.822C234.618 175.051 234.482 175.262 234.303 175.442V175.507L234.374 175.56C235.361 176.082 236.182 176.821 236.762 177.709C236.992 178.151 237.075 178.644 237 179.128C236.969 179.358 236.884 179.58 236.753 179.78C236.621 179.979 236.446 180.152 236.236 180.288L236.129 180.342L236.224 180.406C236.797 180.754 237.318 181.166 237.776 181.631C238.204 182.073 238.449 182.635 238.469 183.221C238.484 183.494 238.41 183.766 238.255 184.001C238.1 184.236 237.871 184.425 237.597 184.543C237.347 184.661 237.061 184.7 236.783 184.653C236.506 184.606 236.255 184.477 236.069 184.285V184.231H236.01C235.618 184.524 235.144 184.713 234.641 184.778C234.137 184.843 233.623 184.78 233.157 184.597C232.765 184.438 232.419 184.201 232.146 183.903C231.872 183.605 231.679 183.254 231.581 182.878V182.824C231.282 182.97 230.96 183.075 230.626 183.135C230.332 183.195 230.032 183.231 229.731 183.243C229.253 183.265 228.774 183.203 228.322 183.06C228.041 182.98 227.8 182.812 227.642 182.587C227.593 182.507 227.549 182.425 227.511 182.34C227.511 182.34 227.511 182.34 227.511 182.405C227.534 182.472 227.566 182.537 227.606 182.598C227.76 182.833 228.001 183.012 228.287 183.103" fill="#455A64"/>
<path d="M248.83 175.925C248.909 175.824 248.977 175.716 249.033 175.603C249.188 175.262 249.269 174.897 249.271 174.529C249.288 173.962 249.095 173.406 248.722 172.949C248.468 172.647 248.147 172.395 247.779 172.21C247.411 172.025 247.005 171.911 246.586 171.875L246.645 171.928C246.78 171.049 246.546 170.157 245.989 169.425C245.677 169.011 245.27 168.663 244.795 168.404C244.288 168.161 243.757 167.963 243.208 167.813C242.932 167.724 242.671 167.601 242.432 167.448C242.199 167.284 242.011 167.075 241.883 166.835C241.596 166.363 241.489 165.761 241.142 165.267C240.771 164.737 240.23 164.32 239.592 164.071C238.953 163.821 238.245 163.751 237.561 163.87L237.657 163.956C237.724 163.328 237.629 162.694 237.38 162.104C237.131 161.514 236.734 160.984 236.22 160.555C235.706 160.126 235.089 159.809 234.417 159.629C233.745 159.449 233.036 159.411 232.345 159.518L232.441 159.593C232.486 158.905 232.311 158.219 231.937 157.617C231.563 157.015 231.005 156.522 230.33 156.196C229.654 155.871 228.889 155.726 228.125 155.78C227.361 155.833 226.63 156.083 226.019 156.499H226.114C225.52 156.033 224.819 155.692 224.061 155.5C223.391 155.309 222.697 155.198 221.996 155.167C220.859 155.101 219.719 155.221 218.63 155.521C217.926 155.7 217.261 155.984 216.66 156.359C216.501 156.453 216.353 156.561 216.219 156.682C216.166 156.716 216.118 156.755 216.075 156.8C216.075 156.8 216.278 156.649 216.684 156.391C217.29 156.035 217.955 155.766 218.654 155.596C219.733 155.31 220.861 155.201 221.984 155.274C222.678 155.304 223.364 155.416 224.025 155.607C224.759 155.808 225.438 156.144 226.019 156.596C226.607 156.2 227.308 155.963 228.04 155.913C228.773 155.864 229.505 156.004 230.152 156.316C230.799 156.629 231.334 157.102 231.693 157.678C232.051 158.255 232.22 158.912 232.178 159.572V159.669H232.285C232.953 159.566 233.637 159.604 234.286 159.779C234.934 159.954 235.529 160.261 236.024 160.678C236.518 161.094 236.899 161.607 237.137 162.177C237.375 162.748 237.463 163.36 237.394 163.967V164.074H237.514C238.159 163.968 238.825 164.037 239.426 164.272C240.028 164.507 240.538 164.899 240.892 165.396C241.226 165.879 241.333 166.47 241.632 166.954C241.77 167.215 241.979 167.44 242.241 167.609C242.486 167.771 242.755 167.901 243.04 167.996C243.584 168.143 244.111 168.333 244.616 168.565C245.084 168.815 245.49 169.147 245.81 169.543C246.357 170.25 246.587 171.118 246.454 171.971C246.865 172.01 247.262 172.125 247.62 172.31C247.977 172.495 248.288 172.746 248.531 173.046C248.897 173.491 249.093 174.029 249.092 174.582C249.095 174.932 249.022 175.279 248.878 175.603C248.901 175.818 248.818 175.925 248.83 175.925Z" fill="#455A64"/>
<path d="M194.386 179.74C194.418 179.672 194.435 179.599 194.435 179.525C194.435 179.451 194.418 179.378 194.386 179.31C194.315 179.148 194.195 179.007 194.04 178.902C193.818 178.767 193.572 178.669 193.312 178.612C192.994 178.562 192.687 178.464 192.405 178.322C192.086 178.13 191.843 177.851 191.712 177.527C191.568 177.15 191.499 176.754 191.51 176.355C191.51 175.936 191.51 175.485 191.51 175.002C191.335 173.976 191.035 172.97 190.614 172.004C190.433 171.457 190.376 170.883 190.447 170.317C190.483 170.022 190.587 169.737 190.751 169.48C190.915 169.223 191.137 168.999 191.402 168.823C192.021 168.52 192.678 168.285 193.36 168.125C193.723 168.024 194.063 167.863 194.362 167.652C194.664 167.429 194.899 167.141 195.043 166.814C195.283 166.147 195.447 165.459 195.532 164.762C195.584 164.418 195.697 164.084 195.866 163.773C196.044 163.47 196.324 163.225 196.666 163.075C197.176 162.925 197.706 162.834 198.242 162.806C198.516 162.776 198.783 162.703 199.03 162.591C199.277 162.476 199.483 162.301 199.627 162.086C199.877 161.669 200.054 161.22 200.152 160.754C200.331 160.121 200.722 159.553 201.274 159.128C201.825 158.702 202.509 158.441 203.231 158.379C204.117 158.317 204.995 158.559 205.69 159.056L205.774 159.121V159.035C206.065 158.39 206.505 157.809 207.065 157.329C207.625 156.849 208.291 156.482 209.021 156.252C209.631 156.066 210.275 155.986 210.919 156.015C211.464 156.043 212.001 156.152 212.506 156.338C213.212 156.619 213.817 157.073 214.249 157.649C214.359 157.797 214.459 157.951 214.547 158.111L214.631 158.24L214.559 158.111C214.479 157.943 214.383 157.781 214.273 157.627C213.847 157.038 213.242 156.572 212.53 156.284C212.018 156.076 211.468 155.956 210.907 155.93C210.248 155.891 209.587 155.968 208.961 156.155C208.213 156.387 207.53 156.76 206.955 157.25C206.381 157.739 205.929 158.333 205.631 158.992H205.738C205.047 158.474 204.165 158.21 203.267 158.25C202.772 158.285 202.291 158.411 201.853 158.622C201.415 158.833 201.031 159.124 200.725 159.475C200.402 159.843 200.17 160.267 200.044 160.722C199.944 161.172 199.771 161.606 199.531 162.011C199.387 162.2 199.197 162.357 198.976 162.471C198.755 162.585 198.508 162.651 198.254 162.667C197.71 162.698 197.172 162.792 196.654 162.946C196.271 163.105 195.956 163.373 195.759 163.709C195.579 164.048 195.458 164.411 195.401 164.783C195.32 165.466 195.16 166.14 194.923 166.793C194.799 167.099 194.584 167.37 194.303 167.577C194.02 167.775 193.701 167.928 193.36 168.028C192.661 168.194 191.988 168.436 191.354 168.748C191.057 168.927 190.815 169.171 190.65 169.457C190.49 169.732 190.385 170.03 190.34 170.338C190.271 170.923 190.331 171.515 190.519 172.079C190.947 173.037 191.251 174.035 191.426 175.055C191.426 175.517 191.426 175.969 191.426 176.398C191.413 176.809 191.49 177.218 191.653 177.602C191.792 177.94 192.047 178.229 192.381 178.429C192.677 178.569 192.995 178.666 193.324 178.719C193.576 178.765 193.816 178.856 194.028 178.988C194.184 179.086 194.307 179.219 194.386 179.375C194.423 179.494 194.423 179.62 194.386 179.74Z" fill="#455A64"/>
<path d="M182.879 172.294C182.883 172.262 182.883 172.229 182.879 172.197L183.023 171.896C183.154 171.628 183.321 171.252 183.548 170.757C183.775 170.263 184.037 169.683 184.419 168.974C184.807 168.193 185.432 167.526 186.222 167.05C186.675 166.803 187.2 166.631 187.726 166.395C187.994 166.27 188.246 166.119 188.478 165.944C188.72 165.758 188.909 165.522 189.027 165.256C189.265 164.708 189.242 164.106 189.421 163.537C189.507 163.256 189.686 163.005 189.934 162.817C190.203 162.631 190.506 162.49 190.829 162.398C191.17 162.288 191.501 162.155 191.82 162C192.147 161.819 192.405 161.553 192.56 161.238C192.79 160.587 192.915 159.911 192.93 159.228C192.972 158.893 193.086 158.568 193.264 158.272C193.46 157.984 193.772 157.776 194.136 157.692C194.876 157.52 195.699 157.692 196.523 157.563C196.938 157.478 197.313 157.279 197.597 156.993C197.853 156.712 198.073 156.405 198.254 156.08C198.425 155.764 198.62 155.458 198.839 155.167C199.03 154.876 199.307 154.638 199.638 154.479C200.325 154.239 201.082 154.213 201.787 154.404C202.497 154.57 203.239 154.592 203.96 154.468C204.628 154.289 205.255 154.001 205.81 153.62C206.316 153.267 206.859 152.961 207.433 152.706C208.507 152.326 209.683 152.24 210.811 152.459C211.75 152.637 212.631 153.004 213.39 153.534C213.951 153.938 214.442 154.416 214.846 154.952C215.098 155.293 215.317 155.652 215.502 156.026L215.646 156.316L215.705 156.413V156.316C215.705 156.241 215.622 156.145 215.574 156.016C215.399 155.641 215.187 155.282 214.941 154.941C214.543 154.392 214.051 153.903 213.485 153.491C212.714 152.961 211.821 152.593 210.871 152.416C209.721 152.182 208.519 152.264 207.421 152.652C206.833 152.907 206.273 153.213 205.75 153.566C205.219 153.944 204.611 154.225 203.96 154.393C203.262 154.507 202.544 154.481 201.859 154.318C201.488 154.253 201.113 154.21 200.737 154.189C200.325 154.173 199.916 154.247 199.543 154.404C199.192 154.582 198.896 154.837 198.683 155.145C198.466 155.443 198.267 155.752 198.087 156.069C197.92 156.387 197.707 156.683 197.454 156.95C197.196 157.213 196.854 157.396 196.475 157.477C195.711 157.627 194.888 157.423 194.088 157.606C193.684 157.698 193.337 157.93 193.121 158.25C192.929 158.566 192.807 158.913 192.763 159.271C192.745 159.942 192.624 160.607 192.405 161.248C192.27 161.536 192.036 161.778 191.736 161.936C191.429 162.093 191.105 162.223 190.769 162.323C190.433 162.426 190.119 162.578 189.838 162.774C189.564 162.98 189.367 163.258 189.277 163.569C189.086 164.16 189.11 164.762 188.883 165.267C188.652 165.749 188.225 166.133 187.69 166.341C187.188 166.578 186.651 166.75 186.198 167.007C185.393 167.5 184.757 168.185 184.359 168.985C183.989 169.672 183.751 170.295 183.524 170.79L183.023 171.939L182.903 172.24L182.879 172.294Z" fill="#455A64"/>
<path d="M188.645 166.653H188.549C188.444 166.653 188.341 166.679 188.251 166.728C188.082 166.83 187.945 166.97 187.853 167.134C187.761 167.297 187.717 167.48 187.726 167.663C187.744 167.923 187.8 168.179 187.893 168.426C188.002 168.71 188.066 169.006 188.084 169.307C188.062 169.65 187.943 169.983 187.738 170.274C187.535 170.585 187.272 170.908 187.057 171.284C186.936 171.481 186.867 171.701 186.854 171.926C186.842 172.152 186.887 172.377 186.985 172.584C187.2 173.014 187.57 173.357 187.761 173.798C187.941 174.262 187.915 174.769 187.69 175.216C187.487 175.7 187.2 176.162 187.009 176.699C186.904 176.968 186.86 177.253 186.878 177.537C186.893 177.831 186.983 178.118 187.141 178.375C187.492 178.878 187.891 179.353 188.334 179.794C188.78 180.226 189.028 180.794 189.027 181.384C188.909 181.994 188.708 182.59 188.43 183.157C188.313 183.46 188.26 183.781 188.275 184.102C188.304 184.425 188.415 184.737 188.597 185.016C188.969 185.525 189.405 185.994 189.898 186.412C190.359 186.811 190.724 187.29 190.972 187.82C191.16 188.356 191.387 188.88 191.653 189.389C191.8 189.639 192.013 189.853 192.273 190.012C192.527 190.159 192.805 190.268 193.097 190.334C193.369 190.388 193.637 190.46 193.897 190.549C194.142 190.645 194.371 190.771 194.577 190.925C194.964 191.241 195.301 191.602 195.58 192C195.836 192.372 196.115 192.73 196.416 193.074C196.935 193.671 197.655 194.101 198.469 194.299C199.079 194.449 199.72 194.475 200.343 194.374C200.735 194.314 201.113 194.198 201.465 194.03C201.584 193.968 201.7 193.9 201.811 193.826C201.355 194.071 200.853 194.238 200.331 194.321C199.717 194.409 199.089 194.372 198.493 194.213C197.703 194.012 197.008 193.586 196.511 192.999C196.225 192.677 195.974 192.322 195.687 191.924C195.403 191.528 195.062 191.166 194.673 190.85C194.455 190.686 194.215 190.548 193.957 190.442C193.694 190.345 193.407 190.291 193.133 190.216C192.859 190.158 192.596 190.06 192.357 189.926C192.128 189.769 191.937 189.572 191.796 189.346C191.535 188.84 191.312 188.32 191.128 187.788C190.881 187.236 190.506 186.738 190.029 186.326C189.543 185.918 189.11 185.46 188.74 184.962C188.57 184.703 188.468 184.413 188.442 184.113C188.435 183.81 188.487 183.508 188.597 183.221C188.879 182.643 189.083 182.037 189.206 181.416C189.219 181.099 189.153 180.784 189.015 180.492C188.864 180.217 188.68 179.957 188.466 179.718C188.024 179.288 187.624 178.825 187.272 178.332C187.131 178.089 187.046 177.822 187.021 177.548C187.011 177.281 187.055 177.015 187.153 176.764C187.332 176.248 187.618 175.775 187.821 175.281C188.049 174.8 188.074 174.262 187.893 173.766C187.666 173.304 187.296 172.96 187.105 172.552C187.002 172.365 186.948 172.159 186.948 171.95C186.948 171.741 187.002 171.535 187.105 171.348C187.296 170.983 187.558 170.671 187.761 170.338C187.976 170.036 188.096 169.687 188.108 169.328C188.088 169.02 188.02 168.716 187.905 168.426C187.805 168.188 187.744 167.938 187.726 167.684C187.715 167.509 187.751 167.335 187.832 167.176C187.914 167.016 188.037 166.877 188.191 166.771C188.323 166.686 188.483 166.644 188.645 166.653Z" fill="#455A64"/>
<path d="M248.627 175.764C248.78 175.757 248.932 175.736 249.08 175.7C249.516 175.609 249.923 175.433 250.274 175.184C250.84 174.8 251.238 174.248 251.396 173.626C251.504 173.21 251.507 172.778 251.403 172.361C251.3 171.945 251.094 171.554 250.799 171.219C250.442 170.845 250.042 170.507 249.606 170.209C249.112 169.907 248.704 169.506 248.412 169.038C248.191 168.512 248.191 167.931 248.412 167.405C248.603 166.846 248.913 166.33 249.092 165.675C249.449 164.359 249.217 162.97 248.448 161.807C248.02 161.185 247.45 160.653 246.774 160.247C246.099 159.841 245.334 159.571 244.532 159.454L244.592 159.572C244.835 159.225 244.983 158.831 245.022 158.422C245.058 158.013 245.009 157.601 244.879 157.208C244.737 156.82 244.523 156.457 244.246 156.134C243.956 155.804 243.614 155.514 243.231 155.274C242.073 154.614 240.763 154.202 239.4 154.071C238.125 153.904 236.831 153.904 235.556 154.071L235.652 154.135C235.605 153.651 235.452 153.179 235.201 152.749C234.95 152.318 234.606 151.937 234.189 151.628C233.772 151.319 233.291 151.088 232.773 150.948C232.256 150.808 231.712 150.763 231.175 150.815C230.534 150.912 229.912 151.089 229.325 151.341C229.048 151.452 228.754 151.528 228.454 151.567C228.169 151.61 227.879 151.61 227.594 151.567C227.057 151.422 226.54 151.22 226.054 150.965C225.588 150.733 225.091 150.556 224.574 150.439C224.102 150.337 223.615 150.297 223.13 150.321C222.281 150.359 221.459 150.596 220.743 151.008C220.221 151.309 219.771 151.7 219.418 152.158C219.189 152.436 219 152.739 218.857 153.061C218.806 153.172 218.766 153.287 218.737 153.404C218.737 153.404 218.737 153.286 218.892 153.071C219.278 152.243 219.941 151.544 220.79 151.073C221.48 150.682 222.269 150.456 223.082 150.417C223.56 150.394 224.038 150.434 224.503 150.536C225.007 150.659 225.493 150.839 225.947 151.073C226.438 151.335 226.963 151.54 227.511 151.685C227.814 151.739 228.126 151.739 228.43 151.685C228.739 151.648 229.04 151.572 229.325 151.46C229.901 151.216 230.511 151.046 231.139 150.955C231.802 150.89 232.472 150.979 233.085 151.213C233.746 151.455 234.318 151.857 234.74 152.375C235.161 152.893 235.415 153.506 235.472 154.146V154.232H235.556C236.815 154.065 238.093 154.065 239.352 154.232C240.685 154.363 241.967 154.767 243.1 155.414C243.468 155.647 243.798 155.925 244.079 156.241C244.354 156.562 244.56 156.927 244.688 157.316C244.818 157.69 244.867 158.084 244.831 158.476C244.788 158.857 244.649 159.225 244.425 159.55L244.353 159.647H244.485C245.233 159.752 245.948 159.996 246.585 160.364C247.222 160.732 247.766 161.216 248.183 161.785C248.6 162.353 248.88 162.994 249.006 163.666C249.132 164.338 249.1 165.026 248.913 165.686C248.746 166.287 248.448 166.835 248.257 167.416C248.024 167.97 248.024 168.581 248.257 169.135C248.542 169.616 248.951 170.029 249.45 170.338C249.881 170.634 250.281 170.965 250.644 171.327C250.927 171.65 251.127 172.026 251.23 172.427C251.333 172.828 251.337 173.245 251.241 173.648C251.097 174.258 250.716 174.803 250.167 175.184C249.815 175.437 249.408 175.62 248.973 175.721C248.83 175.743 248.627 175.754 248.627 175.764Z" fill="#263238"/>
<path d="M186.448 163.215C186.453 163.183 186.453 163.15 186.448 163.118C186.448 163.043 186.448 162.946 186.448 162.828C186.448 162.71 186.448 162.183 186.508 161.753C186.568 161.324 186.58 160.679 186.687 160.002C186.8 159.234 187.013 158.48 187.32 157.756C187.699 156.882 188.276 156.088 189.015 155.425C189.434 155.069 189.913 154.775 190.435 154.554C191.007 154.343 191.593 154.164 192.19 154.017C192.824 153.851 193.419 153.581 193.945 153.222C194.464 152.817 194.928 152.359 195.329 151.857C195.747 151.352 196.141 150.783 196.606 150.342C197.068 149.853 197.627 149.445 198.254 149.139C199.526 148.565 200.915 148.232 202.336 148.161C203.659 148.076 204.988 148.076 206.311 148.161C208.554 148.277 210.761 148.727 212.84 149.494C214.236 150.029 215.532 150.754 216.684 151.643L217.221 152.072L217.579 152.416L217.806 152.62L217.89 152.685L217.818 152.61L217.603 152.395L217.257 152.04L216.732 151.6C215.588 150.701 214.29 149.976 212.888 149.451C210.801 148.662 208.582 148.194 206.323 148.065C204.988 147.979 203.647 147.979 202.312 148.065C200.87 148.133 199.46 148.469 198.17 149.053C197.522 149.368 196.947 149.791 196.475 150.299C195.998 150.794 195.604 151.374 195.198 151.814C194.805 152.309 194.348 152.76 193.837 153.158C193.33 153.507 192.755 153.77 192.142 153.931C191.54 154.077 190.949 154.26 190.375 154.479C189.841 154.711 189.35 155.015 188.919 155.382C188.168 156.059 187.587 156.872 187.212 157.767C186.91 158.503 186.701 159.267 186.592 160.045C186.496 160.722 186.46 161.324 186.436 161.807C186.412 162.291 186.436 162.667 186.436 162.882V163.268L186.448 163.215Z" fill="#263238"/>
<path d="M212.924 183.135C212.872 182.79 212.718 182.463 212.479 182.19C212.24 181.916 211.924 181.704 211.563 181.577C211.197 181.466 210.803 181.458 210.431 181.554C210.06 181.65 209.731 181.845 209.486 182.114C209.265 182.377 209.146 182.698 209.146 183.028C209.146 183.357 209.265 183.678 209.486 183.941C209.699 184.215 209.998 184.425 210.346 184.543C210.796 184.672 211.28 184.672 211.73 184.543C212.114 184.475 212.455 184.279 212.685 183.995C212.872 183.742 212.957 183.438 212.924 183.135Z" fill="#FF9A6C"/>
<path d="M212.017 180.685C211.802 180.685 212.017 181.975 210.943 183.049C209.868 184.124 208.352 184.177 208.376 184.36C208.4 184.543 208.746 184.564 209.391 184.489C210.222 184.387 210.986 184.026 211.551 183.468C212.089 182.93 212.375 182.226 212.351 181.502C212.315 180.954 212.112 180.664 212.017 180.685Z" fill="#263238"/>
<path d="M225.78 185.338C226.203 183.967 226.873 182.668 227.761 181.491L228.131 181.309C229.008 182.222 229.67 183.285 230.077 184.435C230.264 185.018 230.25 185.638 230.037 186.214C229.823 186.789 229.421 187.293 228.883 187.659C228.353 187.957 227.721 188.071 227.105 187.981C226.638 187.928 226.211 187.717 225.911 187.39C225.718 187.079 225.606 186.733 225.583 186.378C225.561 186.022 225.628 185.667 225.78 185.338Z" fill="#E0E0E0"/>
<path d="M173.879 248.485L192.465 246.132L194.518 256.898L175.586 257.328L173.879 248.485Z" fill="#FFBF9D"/>
<path d="M175.216 248.582L165.667 245.541C165.117 245.38 162.766 247.11 162.766 247.11L155.604 252.235C155.598 252.49 155.666 252.742 155.801 252.966C155.937 253.19 156.135 253.378 156.376 253.512C156.618 253.646 156.894 253.72 157.177 253.728C157.461 253.736 157.741 253.677 157.991 253.556C158.457 253.417 160.259 252.396 160.689 252.235C161.69 251.836 162.655 251.369 163.578 250.838L161.417 252.364C160.927 253.055 160.654 253.854 160.629 254.674C160.295 256.898 162.408 257.715 162.718 256.576C163.029 255.437 163.601 253.546 163.601 253.546C163.601 253.546 163.697 256.082 165.32 255.824C165.32 255.824 165.917 257.403 167.35 257.263C168.208 257.18 169.029 256.903 169.737 256.458C169.737 256.458 173.831 258.381 175.479 257.973C177.126 257.564 180.038 256.898 180.038 256.898L175.216 248.582Z" fill="#FFBF9D"/>
<path d="M165.157 249.467L155.613 245.728C155.383 245.638 155.116 245.733 155.016 245.94L153.858 248.334C153.758 248.54 153.864 248.781 154.093 248.871L163.637 252.61C163.867 252.7 164.134 252.605 164.234 252.399L165.392 250.004C165.492 249.798 165.387 249.557 165.157 249.467Z" fill="#455A64"/>
<path d="M159.674 245.981C159.674 245.981 164.246 245.283 164.747 245.219C167.016 245.953 169.239 246.796 171.408 247.744C171.408 247.744 171.778 253.116 171.086 253.707C170.393 254.298 166.86 252.332 164.736 248.775L161.441 248.109C161.441 248.109 158.66 248.861 157.741 248.109C156.821 247.357 157.132 246.948 157.132 246.948L159.674 245.981Z" fill="#FFBF9D"/>
<path d="M172.411 251.418C172.483 251.472 171.969 252.052 170.752 252.31C170.047 252.44 169.32 252.44 168.615 252.31C167.738 252.093 166.966 251.621 166.419 250.967C165.595 250.161 164.95 249.323 164.306 248.818L164.449 248.872C163.406 248.759 162.39 248.494 161.441 248.087C162.488 247.996 163.545 248.062 164.568 248.281H164.64H164.712C165.542 248.934 166.305 249.653 166.992 250.43C167.439 250.976 168.059 251.388 168.77 251.612C169.386 251.751 170.024 251.795 170.656 251.741C171.247 251.66 171.832 251.553 172.411 251.418Z" fill="#FF9A6C"/>
<path d="M165.07 255.641C165.07 255.534 165.559 255.458 166.263 255.19C166.688 255.045 167.089 254.85 167.457 254.61C167.912 254.23 168.437 253.925 169.009 253.707C169.371 253.632 169.751 253.664 170.091 253.8C170.431 253.936 170.713 254.167 170.895 254.459C171.04 254.693 171.106 254.96 171.085 255.227C171.063 255.495 170.956 255.75 170.776 255.963C170.131 256.662 169.415 256.479 169.462 256.393C169.51 256.307 169.988 256.243 170.31 255.695C170.403 255.559 170.452 255.403 170.452 255.243C170.452 255.084 170.403 254.928 170.31 254.792C170.196 254.636 170.033 254.514 169.842 254.442C169.65 254.369 169.44 254.349 169.236 254.384C168.756 254.59 168.307 254.85 167.899 255.158C167.471 255.395 167.003 255.569 166.514 255.673C165.619 255.834 165.07 255.727 165.07 255.641Z" fill="#FF9A6C"/>
<path d="M163.971 253.804C163.9 253.728 164.21 253.331 164.855 252.826C165.23 252.531 165.629 252.262 166.048 252.02C166.614 251.65 167.31 251.478 168.006 251.537C168.405 251.588 168.772 251.763 169.045 252.031C169.174 252.163 169.271 252.319 169.328 252.487C169.386 252.656 169.403 252.834 169.379 253.009C169.293 253.521 168.994 253.986 168.543 254.309C167.863 254.792 167.481 255.039 167.35 254.996C167.218 254.953 167.564 254.502 168.113 253.922C168.401 253.648 168.581 253.297 168.627 252.923C168.627 252.568 168.352 252.278 167.839 252.203C167.321 252.171 166.806 252.291 166.371 252.547C165.905 252.772 165.476 252.998 165.177 253.191C164.485 253.61 164.055 253.879 163.971 253.804Z" fill="#FF9A6C"/>
<path d="M234.339 278.377H195.496C193.908 278.377 192.62 279.536 192.62 280.966V302.445C192.62 303.875 193.908 305.035 195.496 305.035H234.339C235.927 305.035 237.215 303.875 237.215 302.445V280.966C237.215 279.536 235.927 278.377 234.339 278.377Z" fill="#FF725E"/>
<path d="M236.69 279.57C236.403 280.13 236.047 280.66 235.628 281.149C234.541 282.52 233.309 283.794 231.951 284.953C229.929 286.692 227.622 288.141 225.111 289.251C222.039 290.641 218.653 291.38 215.214 291.41C211.775 291.44 208.374 290.76 205.273 289.423C202.744 288.362 200.413 286.955 198.361 285.254C196.985 284.115 195.733 282.859 194.625 281.504C194.193 281.027 193.828 280.503 193.539 279.946C195.144 281.693 196.879 283.341 198.731 284.878C200.782 286.492 203.087 287.825 205.571 288.832C208.587 290.099 211.88 290.742 215.208 290.712C218.536 290.683 221.814 289.981 224.801 288.66C227.267 287.618 229.548 286.253 231.569 284.609C233.404 283.038 235.115 281.354 236.69 279.57Z" fill="#263238"/>
<path d="M209.2 288.305L222.139 257.124L207.421 253.675L200.844 286.876L209.2 288.305Z" fill="#FFBF9D"/>
<path d="M200.88 309.956L195.878 304.659L195.246 297.707L201.059 286.876H209.128C209.128 286.876 210.322 290.852 209.868 292.539C209.415 294.226 208.675 297.976 208.675 297.976L208.054 302.026L208.997 303.724L210.62 305.228C210.62 305.228 210.453 306.539 209.092 306.163C207.956 305.697 206.93 305.036 206.072 304.218L204.879 301.564V304.218L208.221 307.195C208.221 307.195 207.899 308.602 206.645 308.269L205.452 307.904C205.452 307.904 205.237 308.978 203.78 308.645C202.867 308.407 201.98 308.094 201.131 307.71C201.368 308.058 201.472 308.466 201.427 308.871C201.382 309.277 201.19 309.658 200.88 309.956Z" fill="#FFBF9D"/>
<path d="M201.035 297.427C200.867 298.036 200.771 298.659 200.749 299.286C200.749 299.867 200.629 300.543 200.569 301.306C200.569 301.693 200.569 302.101 200.498 302.51C200.461 302.953 200.461 303.399 200.498 303.842C200.877 304.638 201.472 305.337 202.229 305.873C202.801 306.327 203.42 306.73 204.079 307.076C204.654 307.427 205.256 307.739 205.881 308.011C205.394 307.561 204.84 307.174 204.234 306.861C203.618 306.491 203.036 306.078 202.491 305.626C201.807 305.123 201.264 304.482 200.904 303.756C200.904 303.402 200.904 302.918 200.904 302.521C200.904 302.123 200.904 301.715 200.904 301.328C200.904 300.597 200.963 299.92 200.987 299.308C201.071 298.684 201.087 298.054 201.035 297.427Z" fill="#FF9A6C"/>
<path d="M197.693 297.599C197.471 298.155 197.323 298.732 197.251 299.319C197.144 299.845 197.024 300.479 196.893 301.188C196.893 301.553 196.786 301.919 196.714 302.263C196.64 302.678 196.6 303.099 196.595 303.52C196.876 304.291 197.368 304.986 198.027 305.54C198.52 306.007 199.064 306.428 199.65 306.797C200.16 307.165 200.699 307.498 201.262 307.796C200.845 307.34 200.364 306.936 199.829 306.593C199.288 306.203 198.781 305.775 198.313 305.314C197.728 304.79 197.279 304.155 197 303.455C197.019 303.07 197.059 302.687 197.12 302.306C197.12 301.93 197.227 301.553 197.275 301.231L197.538 299.34C197.657 298.766 197.709 298.183 197.693 297.599Z" fill="#FF9A6C"/>
<path d="M227.618 196.319C228.669 197.501 234.983 203.067 236.833 216.347C238.684 229.628 241.381 253.621 238.695 256.178C236.416 258.327 230.769 255.469 230.769 255.469L223.058 256.361L193.897 258.338C193.897 258.338 190.722 259.036 190.722 253.342C190.722 247.647 184.932 232.926 188.621 225.599C192.309 218.271 201.548 208.246 201.548 208.246L204.974 203.26L205.237 199.704L227.415 193.472L227.618 196.319Z" fill="#455A64"/>
<path d="M226.651 203.25C229.731 205.689 233.097 210.148 232.345 217.766C231.032 231.283 226.031 255.953 222.079 263.066L203.9 261.4L208.901 243.381C208.901 243.381 208.376 215.875 208.113 213.5C207.958 212.157 209.57 207.805 212.614 204.517" fill="#455A64"/>
<path d="M212.614 204.517C211.89 205.242 211.25 206.03 210.704 206.87C210.031 207.864 209.452 208.906 208.973 209.986C208.651 210.683 208.392 211.402 208.197 212.135C208.082 212.532 208.018 212.94 208.006 213.35C208.006 213.769 208.006 214.188 208.006 214.628C208.257 221.645 208.436 231.616 208.651 243.424C207.111 248.958 205.404 255.05 203.625 261.443L203.566 261.647H203.804L215.037 262.722L221.984 263.356H222.127V263.238C223.12 261.261 223.938 259.216 224.574 257.124C225.219 255.082 225.768 253.052 226.317 251.053C227.367 247.067 228.227 243.199 228.979 239.513C230.459 232.142 231.509 225.545 232.142 219.915C232.547 217.421 232.547 214.887 232.142 212.393C231.784 210.502 231.057 208.683 229.993 207.021C229.329 205.991 228.527 205.039 227.606 204.184C227.287 203.882 226.944 203.602 226.58 203.346C226.58 203.346 226.663 203.432 226.83 203.572C226.997 203.712 227.248 203.937 227.546 204.238C228.466 205.102 229.267 206.061 229.934 207.096C230.962 208.738 231.658 210.532 231.987 212.393C232.407 214.886 232.407 217.422 231.987 219.915C231.33 225.48 230.244 232.11 228.74 239.47C227.976 243.145 227.117 246.991 226.066 250.999C225.549 252.991 224.964 255.007 224.312 257.049C223.699 259.12 222.901 261.143 221.924 263.098L222.127 263.001L215.192 262.367L203.959 261.293L204.127 261.518C205.905 255.072 207.588 249.033 209.116 243.499C208.854 231.68 208.639 221.72 208.316 214.693C208.132 213.141 208.421 211.574 209.152 210.158C209.622 209.082 210.185 208.04 210.835 207.042C211.36 206.226 211.838 205.635 212.148 205.237L212.518 204.797C212.578 204.571 212.626 204.517 212.614 204.517Z" fill="#263238"/>
<path d="M205.81 200.037C205.948 200.31 206.104 200.575 206.275 200.832C206.586 201.348 207.015 202.1 207.469 203.035V203.131H207.588C210.444 202.557 213.261 201.839 216.028 200.982C219.31 199.972 222.211 198.898 224.288 198.071C225.326 197.662 226.15 197.308 226.675 197.05C226.976 196.932 227.264 196.788 227.535 196.62C227.212 196.686 226.899 196.787 226.603 196.921L224.121 197.834C222.032 198.597 219.119 199.618 215.849 200.628C212.578 201.638 209.653 202.401 207.493 202.895L207.66 202.96C207.123 202.035 206.645 201.294 206.299 200.811C206.183 200.531 206.018 200.27 205.81 200.037Z" fill="#263238"/>
<g opacity="0.3">
<path d="M219.119 200.488C214.917 202.282 210.763 204.077 206.55 205.914C206.395 204.077 206.239 202.24 206.072 200.402C206.842 201.247 207.407 202.228 207.732 203.282C207.935 203.044 208.188 202.845 208.477 202.696C208.765 202.546 209.084 202.45 209.415 202.411C212.423 201.724 215.55 201.337 218.391 200.262C219.394 199.876 220.361 199.403 221.351 198.995C221.829 198.796 222.319 198.624 222.82 198.479C223.094 198.404 223.631 198.199 223.894 198.404C223.582 198.616 223.23 198.776 222.855 198.876L221.578 199.424L219.119 200.488Z" fill="black"/>
</g>
<g opacity="0.3">
<path d="M232.142 219.764L232.452 214.961C235.329 228.854 232.202 242.898 225.004 255.49C227.547 243.682 230.352 232.873 232.142 219.764Z" fill="black"/>
</g>
<path d="M148.215 247.98C148.12 247.98 147.881 247.69 147.797 247.067C147.695 246.244 147.928 245.415 148.454 244.735C148.981 244.061 149.754 243.574 150.638 243.36C151.319 243.22 151.736 243.36 151.748 243.36C151.76 243.36 150.137 243.757 149.098 245.111C148.06 246.465 148.43 247.958 148.215 247.98Z" fill="#263238"/>
<path d="M142.987 248.109C142.458 247.579 142.139 246.907 142.08 246.196C141.906 245.351 141.923 244.483 142.128 243.643C142.333 242.804 142.722 242.01 143.273 241.307C143.857 240.507 144.653 239.85 145.589 239.395C146.362 239.06 147.194 238.849 148.048 238.772C148.806 238.652 149.582 238.652 150.34 238.772C149.64 239.046 148.893 239.209 148.131 239.255C147.365 239.388 146.625 239.624 145.935 239.954C145.119 240.382 144.428 240.979 143.918 241.694C142.915 242.984 142.454 244.553 142.617 246.121C142.736 247.346 143.106 248.055 142.987 248.109Z" fill="#263238"/>
<path d="M136.815 246.164C136.265 245.369 135.987 244.446 136.016 243.51C135.943 242.379 136.12 241.246 136.535 240.177C136.951 239.108 137.597 238.123 138.437 237.279C139.276 236.435 140.293 235.749 141.428 235.261C142.564 234.772 143.795 234.49 145.052 234.431C146.082 234.307 147.131 234.452 148.072 234.85C148.072 234.968 146.878 234.721 145.1 234.925C142.747 235.151 140.571 236.156 138.994 237.744C137.417 239.332 136.551 241.391 136.565 243.521C136.541 245.143 136.947 246.132 136.815 246.164Z" fill="#263238"/>
</svg>
