<svg width="40" height="40" viewBox="0 0 40 40" fill="none" xmlns="http://www.w3.org/2000/svg">
<circle cx="20" cy="20" r="20" fill="url(#paint0_linear_1882_640)"/>
<path d="M8.424 25.098C7.70533 25.098 7.06133 24.9813 6.492 24.748C5.92267 24.5147 5.46533 24.1693 5.12 23.712C4.784 23.2547 4.60667 22.704 4.588 22.06H7.136C7.17333 22.424 7.29933 22.704 7.514 22.9C7.72867 23.0867 8.00867 23.18 8.354 23.18C8.70867 23.18 8.98867 23.1007 9.194 22.942C9.39933 22.774 9.502 22.5453 9.502 22.256C9.502 22.0133 9.418 21.8127 9.25 21.654C9.09133 21.4953 8.89067 21.3647 8.648 21.262C8.41467 21.1593 8.07867 21.0427 7.64 20.912C7.00533 20.716 6.48733 20.52 6.086 20.324C5.68467 20.128 5.33933 19.8387 5.05 19.456C4.76067 19.0733 4.616 18.574 4.616 17.958C4.616 17.0433 4.94733 16.3293 5.61 15.816C6.27267 15.2933 7.136 15.032 8.2 15.032C9.28267 15.032 10.1553 15.2933 10.818 15.816C11.4807 16.3293 11.8353 17.048 11.882 17.972H9.292C9.27333 17.6547 9.15667 17.4073 8.942 17.23C8.72733 17.0433 8.452 16.95 8.116 16.95C7.82667 16.95 7.59333 17.0293 7.416 17.188C7.23867 17.3373 7.15 17.5567 7.15 17.846C7.15 18.1633 7.29933 18.4107 7.598 18.588C7.89667 18.7653 8.36333 18.9567 8.998 19.162C9.63267 19.3767 10.146 19.582 10.538 19.778C10.9393 19.974 11.2847 20.2587 11.574 20.632C11.8633 21.0053 12.008 21.486 12.008 22.074C12.008 22.634 11.8633 23.1427 11.574 23.6C11.294 24.0573 10.8833 24.4213 10.342 24.692C9.80067 24.9627 9.16133 25.098 8.424 25.098ZM21.2993 25L20.3893 24.118C19.4839 24.8087 18.4013 25.154 17.1413 25.154C16.3853 25.154 15.7273 25.0327 15.1673 24.79C14.6073 24.538 14.1733 24.188 13.8653 23.74C13.5666 23.2827 13.4173 22.7507 13.4173 22.144C13.4173 21.528 13.5806 20.9727 13.9073 20.478C14.2433 19.974 14.7426 19.5633 15.4053 19.246C15.1626 18.9473 14.9899 18.6627 14.8873 18.392C14.7846 18.112 14.7333 17.8087 14.7333 17.482C14.7333 17.0153 14.8546 16.5907 15.0973 16.208C15.3399 15.8253 15.6899 15.5267 16.1473 15.312C16.6139 15.088 17.1646 14.976 17.7993 14.976C18.4433 14.976 18.9893 15.0927 19.4373 15.326C19.8853 15.5593 20.2213 15.872 20.4453 16.264C20.6693 16.656 20.7719 17.0853 20.7533 17.552H18.4993C18.5086 17.3 18.4433 17.1087 18.3033 16.978C18.1726 16.838 17.9953 16.768 17.7713 16.768C17.5473 16.768 17.3606 16.8333 17.2113 16.964C17.0619 17.0947 16.9873 17.2627 16.9873 17.468C16.9873 17.664 17.0479 17.8693 17.1693 18.084C17.2999 18.2987 17.5006 18.546 17.7713 18.826L20.1653 21.164C20.1839 21.1173 20.2073 21.0613 20.2353 20.996C20.2726 20.9307 20.3099 20.856 20.3473 20.772L20.8653 19.89H23.2593L22.5873 21.108C22.3353 21.6587 22.0459 22.1813 21.7193 22.676L24.0853 25H21.2993ZM17.2533 23.222C17.8786 23.222 18.4339 23.0447 18.9193 22.69L16.7353 20.576C16.0633 20.9213 15.7273 21.388 15.7273 21.976C15.7273 22.3307 15.8626 22.6293 16.1333 22.872C16.4133 23.1053 16.7866 23.222 17.2533 23.222ZM31.7752 18.28C31.5979 17.9533 31.3412 17.706 31.0052 17.538C30.6785 17.3607 30.2912 17.272 29.8432 17.272C29.0685 17.272 28.4479 17.5287 27.9812 18.042C27.5145 18.546 27.2812 19.2227 27.2812 20.072C27.2812 20.9773 27.5239 21.6867 28.0092 22.2C28.5039 22.704 29.1805 22.956 30.0392 22.956C30.6272 22.956 31.1219 22.8067 31.5232 22.508C31.9339 22.2093 32.2325 21.78 32.4192 21.22H29.3812V19.456H34.5892V21.682C34.4119 22.2793 34.1085 22.8347 33.6792 23.348C33.2592 23.8613 32.7225 24.2767 32.0692 24.594C31.4159 24.9113 30.6785 25.07 29.8572 25.07C28.8865 25.07 28.0185 24.86 27.2532 24.44C26.4972 24.0107 25.9045 23.418 25.4752 22.662C25.0552 21.906 24.8452 21.0427 24.8452 20.072C24.8452 19.1013 25.0552 18.238 25.4752 17.482C25.9045 16.7167 26.4972 16.124 27.2532 15.704C28.0092 15.2747 28.8725 15.06 29.8432 15.06C31.0192 15.06 32.0085 15.3447 32.8112 15.914C33.6232 16.4833 34.1599 17.272 34.4212 18.28H31.7752Z" fill="white"/>
<defs>
<linearGradient id="paint0_linear_1882_640" x1="20" y1="0" x2="20" y2="40" gradientUnits="userSpaceOnUse">
<stop stop-color="#CDE8E5"/>
<stop offset="1" stop-color="#4D869C"/>
</linearGradient>
</defs>
</svg>
